<svg width="24" height="25" viewBox="0 0 24 25" fill="none" xmlns="http://www.w3.org/2000/svg">
<path fill-rule="evenodd" clip-rule="evenodd" d="M20.75 7.95115C20.75 8.36536 20.4142 8.70115 20 8.70115L4 8.70115C3.58579 8.70115 3.25 8.36536 3.25 7.95115C3.25 7.53694 3.58579 7.20115 4 7.20115L20 7.20115C20.4142 7.20115 20.75 7.53694 20.75 7.95115Z" fill="white"/>
<path fill-rule="evenodd" clip-rule="evenodd" d="M20.75 12.9511C20.75 13.3654 20.4142 13.7011 20 13.7011L4 13.7011C3.58579 13.7011 3.25 13.3654 3.25 12.9511C3.25 12.5369 3.58579 12.2011 4 12.2011L20 12.2011C20.4142 12.2011 20.75 12.5369 20.75 12.9511Z" fill="white"/>
<path fill-rule="evenodd" clip-rule="evenodd" d="M20.75 17.9511C20.75 18.3654 20.4142 18.7011 20 18.7011L4 18.7011C3.58579 18.7011 3.25 18.3654 3.25 17.9511C3.25 17.5369 3.58579 17.2011 4 17.2011L20 17.2011C20.4142 17.2011 20.75 17.5369 20.75 17.9511Z" fill="white"/>
</svg>
