<svg width="25" height="24" viewBox="0 0 25 24" fill="none" xmlns="http://www.w3.org/2000/svg">
<g clip-path="url(#clip0_59_2992)">
<path d="M16.5911 6.28H8.01105C7.22129 6.28 6.58105 6.92023 6.58105 7.71V16.29C6.58105 17.0798 7.22129 17.72 8.01105 17.72H16.5911C17.3808 17.72 18.0211 17.0798 18.0211 16.29V7.71C18.0211 6.92023 17.3808 6.28 16.5911 6.28Z" stroke="#F1F3F8" stroke-width="1.43" stroke-linecap="round" stroke-linejoin="round"/>
<path d="M9.44092 6.28V2.705" stroke="#F1F3F8" stroke-width="1.43" stroke-linecap="round" stroke-linejoin="round"/>
<path d="M15.1606 6.28V2.705" stroke="#F1F3F8" stroke-width="1.43" stroke-linecap="round" stroke-linejoin="round"/>
<path d="M6.58086 14.86H3.00586" stroke="#F1F3F8" stroke-width="1.43" stroke-linecap="round" stroke-linejoin="round"/>
<path d="M6.58086 9.14H3.00586" stroke="#F1F3F8" stroke-width="1.43" stroke-linecap="round" stroke-linejoin="round"/>
<path d="M15.1606 17.72V21.295" stroke="#F1F3F8" stroke-width="1.43" stroke-linecap="round" stroke-linejoin="round"/>
<path d="M9.44092 17.72V21.295" stroke="#F1F3F8" stroke-width="1.43" stroke-linecap="round" stroke-linejoin="round"/>
<path d="M18.021 9.14H21.596" stroke="#F1F3F8" stroke-width="1.43" stroke-linecap="round" stroke-linejoin="round"/>
<path d="M18.021 14.86H21.596" stroke="#F1F3F8" stroke-width="1.43" stroke-linecap="round" stroke-linejoin="round"/>
<path d="M14.4459 12.715H11.5859" stroke="#F1F3F8" stroke-width="1.43" stroke-linecap="round" stroke-linejoin="round"/>
</g>
<defs>
<clipPath id="clip0_59_2992">
<rect width="24" height="24" fill="white" transform="translate(0.300781)"/>
</clipPath>
</defs>
</svg>
