<svg width="17" height="16" viewBox="0 0 17 16" fill="none" xmlns="http://www.w3.org/2000/svg">
<g clip-path="url(#clip0_61_1422)">
<path d="M12.4717 1.32667H4.13006C2.74848 1.32667 1.62756 2.44758 1.62756 3.82917V12.1708C1.62756 13.5524 2.74848 14.6733 4.13006 14.6733H12.4717C13.8533 14.6733 14.9742 13.5524 14.9742 12.1708V3.82917C14.9742 2.44758 13.8533 1.32667 12.4717 1.32667ZM5.75428 12.6561H3.6809L3.66887 6.44797H5.74225L5.75428 12.6561ZM4.66545 5.63586H4.65342C3.97566 5.63586 3.53853 5.16865 3.53853 4.58714C3.53853 3.99159 3.9897 3.54042 4.67949 3.54042C5.36928 3.54042 5.79238 3.99159 5.80642 4.58714C5.80642 5.16865 5.36728 5.63586 4.66545 5.63586ZM12.943 12.6561H10.8515V9.28333C10.8515 8.46721 10.635 7.91177 9.90506 7.91177C9.34762 7.91177 9.04683 8.28675 8.90246 8.64969C8.84832 8.78003 8.83428 8.95849 8.83428 9.14096V12.6561H6.73282L6.72079 6.44797H8.82225L8.83428 7.32425C9.10298 6.90917 9.55014 6.32164 10.6209 6.32164C11.9484 6.32164 12.9409 7.18789 12.9409 9.05073V12.6561H12.943Z" fill="#D6DCE7"/>
</g>
<defs>
<clipPath id="clip0_61_1422">
<rect width="16" height="16" fill="white" transform="translate(0.300903)"/>
</clipPath>
</defs>
</svg>
