<svg width="20" height="20" viewBox="0 0 20 20" fill="none" xmlns="http://www.w3.org/2000/svg">
<path fill-rule="evenodd" clip-rule="evenodd" d="M3.93138 2.57676C4.9532 1.50097 6.64338 1.70253 7.48804 2.89718L8.53887 4.38342C9.21448 5.33897 9.15741 6.66745 8.3511 7.51634L8.14705 7.73116C8.14648 7.73265 8.14589 7.73426 8.14527 7.736C8.13449 7.7663 8.10722 7.86278 8.13405 8.04591C8.18968 8.42552 8.48272 9.19693 9.67243 10.4495C10.8659 11.706 11.5898 12.0021 11.9252 12.0566C12.07 12.0801 12.1456 12.0597 12.1698 12.0512L12.5103 11.6926C13.2385 10.926 14.3738 10.775 15.2891 11.3019L16.8812 12.2183C18.242 13.0015 18.5587 14.9175 17.4712 16.0624L16.2874 17.3088C15.918 17.6977 15.4142 18.0298 14.7916 18.0912C13.2717 18.2412 9.75079 18.0458 6.05964 14.1597C2.61534 10.5335 1.96102 7.37945 1.87831 5.83843L2.43339 5.80864L1.87831 5.83843C1.83744 5.07704 2.17684 4.42396 2.62338 3.95384L3.93138 2.57676ZM6.46739 3.61882C6.04043 3.01494 5.2734 2.97891 4.83771 3.43762L3.5297 4.8147C3.25355 5.10544 3.10865 5.43868 3.12651 5.77144C3.19404 7.02962 3.73586 9.89819 6.96596 13.2989C10.3528 16.8646 13.473 16.9653 14.6688 16.8473C14.9053 16.8239 15.1486 16.6927 15.3811 16.4479L16.5649 15.2016C17.0756 14.664 16.9417 13.6954 16.2577 13.3017L14.6656 12.3853C14.2383 12.1393 13.7378 12.2153 13.4166 12.5535L13.0371 12.9531L12.5978 12.5358C13.0371 12.9531 13.0365 12.9537 13.0359 12.9543L13.0347 12.9555L13.0323 12.9581L13.027 12.9635L13.015 12.9753C13.0064 12.9836 12.9966 12.9927 12.9854 13.0025C12.963 13.0222 12.9352 13.0446 12.9019 13.0682C12.8352 13.1155 12.7463 13.1676 12.6338 13.212C12.4038 13.3027 12.1001 13.3513 11.7249 13.2904C10.9936 13.1716 10.0352 12.6464 8.76611 11.3103C7.49332 9.97032 7.00619 8.97055 6.89726 8.22713C6.84182 7.84873 6.88619 7.54574 6.96761 7.31693C7.00765 7.20441 7.05492 7.11469 7.09852 7.04656C7.12026 7.01258 7.14098 6.98413 7.1593 6.96099C7.16846 6.94941 7.17702 6.93916 7.18482 6.9302L7.19592 6.91771L7.20101 6.91218L7.20343 6.90959L7.2046 6.90834C7.20518 6.90773 7.20575 6.90713 7.64881 7.32794L7.20576 6.90712L7.44477 6.65548C7.81605 6.2646 7.87 5.60261 7.51821 5.10506L6.46739 3.61882Z" fill="#8A94A6"/>
<path d="M11.0496 1.56673C11.1047 1.22599 11.4269 0.994843 11.7676 1.05001C11.7887 1.05404 11.8565 1.06673 11.8921 1.07465C11.9632 1.09048 12.0624 1.11486 12.1861 1.15089C12.4334 1.22292 12.7789 1.34159 13.1936 1.53171C14.0238 1.91233 15.1286 2.57817 16.2751 3.72467C17.4216 4.87117 18.0875 5.97602 18.4681 6.80625C18.6582 7.22093 18.7769 7.56643 18.8489 7.81375C18.885 7.93742 18.9093 8.03661 18.9252 8.10772C18.9331 8.14327 18.9389 8.17182 18.9429 8.19291L18.9477 8.21891C19.0029 8.55965 18.7738 8.89508 18.4331 8.95025C18.0933 9.00525 17.7732 8.77523 17.7167 8.43608C17.715 8.42698 17.7102 8.40251 17.7051 8.37944C17.6948 8.33329 17.677 8.2601 17.6488 8.16331C17.5924 7.96969 17.4945 7.68192 17.3318 7.32719C17.007 6.6186 16.4228 5.64011 15.3913 4.60856C14.3597 3.577 13.3812 2.99284 12.6726 2.66798C12.3179 2.50535 12.0301 2.40741 11.8365 2.35101C11.7397 2.32282 11.6181 2.29489 11.5719 2.28462C11.2328 2.2281 10.9946 1.9065 11.0496 1.56673Z" fill="#8A94A6"/>
<path fill-rule="evenodd" clip-rule="evenodd" d="M11.2384 4.44128C11.3332 4.10939 11.6792 3.9172 12.0111 4.01203L11.8394 4.61298C12.0111 4.01203 12.0114 4.01212 12.0116 4.0122L12.0123 4.01238L12.0135 4.01274L12.0163 4.01356L12.0228 4.01548L12.0393 4.02062C12.0518 4.02464 12.0675 4.02987 12.0862 4.03651C12.1237 4.04979 12.1731 4.06868 12.2338 4.09468C12.3552 4.14671 12.5211 4.22706 12.7248 4.34765C13.1327 4.58906 13.6895 4.99004 14.3437 5.64418C14.9978 6.29832 15.3988 6.85515 15.6402 7.26303C15.7608 7.46679 15.8412 7.63268 15.8932 7.75408C15.9192 7.81476 15.9381 7.86422 15.9514 7.90165C15.958 7.92036 15.9632 7.93605 15.9673 7.94861L15.9724 7.9651L15.9743 7.97156L15.9751 7.97434L15.9755 7.97562L15.9757 7.97623C15.9758 7.97652 15.9758 7.97682 15.3749 8.14852L15.9758 7.97682C16.0707 8.30871 15.8785 8.65464 15.5466 8.74947C15.2175 8.84349 14.8746 8.65536 14.7764 8.32864L14.7733 8.31966C14.7689 8.30714 14.7597 8.28249 14.7443 8.24648C14.7134 8.17454 14.6575 8.05684 14.5645 7.89968C14.3787 7.58573 14.0431 7.11136 13.4598 6.52807C12.8765 5.94477 12.4021 5.60918 12.0882 5.42338C11.931 5.33036 11.8133 5.27445 11.7414 5.24361C11.7054 5.22818 11.6807 5.21899 11.6682 5.21455L11.6592 5.21147C11.3325 5.11323 11.1444 4.77036 11.2384 4.44128Z" fill="#8A94A6"/>
</svg>
