<svg width="25" height="24" viewBox="0 0 25 24" fill="none" xmlns="http://www.w3.org/2000/svg">
<path fill-rule="evenodd" clip-rule="evenodd" d="M8.24591 1.25H16.3557C17.7232 1.24998 18.8256 1.24996 19.6925 1.36652C20.5926 1.48754 21.3505 1.74643 21.9524 2.34835C22.5543 2.95027 22.8132 3.70814 22.9343 4.60825C23.0508 5.47522 23.0508 6.57754 23.0508 7.94513V12.0549C23.0508 13.4225 23.0508 14.5248 22.9343 15.3918C22.8132 16.2919 22.5543 17.0497 21.9524 17.6516C21.4545 18.1496 20.8476 18.4146 20.1369 18.5593C19.4467 18.6998 18.6141 18.7352 17.6284 18.7457L17.6228 18.7457L17.3983 18.7464C17.3016 19.0506 17.1443 19.34 16.9262 19.5958C16.7952 19.7496 16.716 19.9408 16.6999 20.1423C16.6038 21.3466 15.6474 22.303 14.4431 22.3991C14.2416 22.4152 14.0504 22.4944 13.8966 22.6255C12.977 23.4091 11.6245 23.4091 10.705 22.6255C10.5512 22.4944 10.3599 22.4152 10.1585 22.3991C8.95414 22.303 7.99779 21.3466 7.90168 20.1423C7.88561 19.9409 7.80639 19.7496 7.67532 19.5958C7.4576 19.3403 7.30037 19.0514 7.20363 18.7477C6.1633 18.7406 5.29249 18.7125 4.57713 18.5811C3.81914 18.4418 3.17406 18.1766 2.64913 17.6517C2.04722 17.0497 1.78832 16.2919 1.66731 15.3918C1.55074 14.5248 1.55076 13.4225 1.55078 12.0549V7.94513C1.55076 6.57754 1.55074 5.47522 1.66731 4.60825C1.78832 3.70814 2.04722 2.95027 2.64913 2.34835C3.25105 1.74643 4.00892 1.48754 4.90903 1.36652C5.776 1.24996 6.87832 1.24998 8.24591 1.25ZM7.20512 17.2476C7.30199 16.9456 7.45872 16.6584 7.67532 16.4042C7.80639 16.2504 7.88561 16.0592 7.90168 15.8577C7.99779 14.6534 8.95414 13.697 10.1585 13.6009C10.3599 13.5848 10.5512 13.5056 10.705 13.3745C11.6245 12.5909 12.977 12.5909 13.8966 13.3745C14.0504 13.5056 14.2416 13.5848 14.4431 13.6009C15.6474 13.697 16.6038 14.6534 16.6999 15.8577C16.716 16.0592 16.7952 16.2504 16.9262 16.4042C17.1426 16.658 17.2992 16.9448 17.396 17.2464L17.6152 17.2457C18.6005 17.2352 19.303 17.1983 19.8376 17.0895C20.3521 16.9847 20.6598 16.8229 20.8918 16.591C21.1685 16.3142 21.349 15.9257 21.4476 15.1919C21.5492 14.4365 21.5508 13.4354 21.5508 12V8C21.5508 6.56458 21.5492 5.56347 21.4476 4.80812C21.349 4.07435 21.1685 3.68577 20.8918 3.40901C20.615 3.13225 20.2264 2.9518 19.4927 2.85315C18.7373 2.75159 17.7362 2.75 16.3008 2.75H8.30078C6.86537 2.75 5.86425 2.75159 5.1089 2.85315C4.37513 2.9518 3.98656 3.13225 3.70979 3.40901C3.43303 3.68577 3.25258 4.07435 3.15393 4.80812C3.05238 5.56347 3.05078 6.56458 3.05078 8V12C3.05078 13.4354 3.05238 14.4365 3.15393 15.1919C3.25258 15.9257 3.43303 16.3142 3.70979 16.591C3.95325 16.8344 4.28132 17.0016 4.84813 17.1057C5.41831 17.2105 6.16404 17.2404 7.20512 17.2476ZM8.55078 6C8.55078 5.58579 8.88657 5.25 9.30078 5.25H15.3008C15.715 5.25 16.0508 5.58579 16.0508 6C16.0508 6.41421 15.715 6.75 15.3008 6.75H9.30078C8.88657 6.75 8.55078 6.41421 8.55078 6ZM6.55078 9.5C6.55078 9.08579 6.88657 8.75 7.30078 8.75H17.3008C17.715 8.75 18.0508 9.08579 18.0508 9.5C18.0508 9.91421 17.715 10.25 17.3008 10.25H7.30078C6.88657 10.25 6.55078 9.91421 6.55078 9.5ZM12.9237 14.5162C12.5647 14.2103 12.0368 14.2103 11.6779 14.5162C11.2839 14.852 10.7939 15.055 10.2778 15.0961C9.80773 15.1337 9.43444 15.5069 9.39693 15.977C9.35575 16.4931 9.1528 16.9831 8.81699 17.3771C8.51112 17.736 8.51112 18.264 8.81699 18.6229C9.1528 19.0169 9.35575 19.5069 9.39693 20.023C9.43444 20.4931 9.80773 20.8663 10.2778 20.9039C10.7939 20.945 11.2839 21.148 11.6779 21.4838C12.0368 21.7897 12.5647 21.7897 12.9237 21.4838C13.3177 21.148 13.8077 20.945 14.3238 20.9039C14.7938 20.8663 15.1671 20.4931 15.2046 20.023C15.2458 19.5069 15.4488 19.0169 15.7846 18.6229C16.0904 18.264 16.0904 17.736 15.7846 17.3771C15.4488 16.9831 15.2458 16.4931 15.2046 15.977C15.1671 15.5069 14.7938 15.1337 14.3238 15.0961C13.8077 15.055 13.3177 14.852 12.9237 14.5162ZM13.289 16.4517C13.5919 16.1691 14.0664 16.1854 14.3491 16.4883C14.6317 16.7911 14.6153 17.2657 14.3125 17.5483L12.1697 19.5483C11.8815 19.8172 11.4343 19.8172 11.1462 19.5483L10.289 18.7483C9.98623 18.4657 9.96987 17.9911 10.2525 17.6883C10.5351 17.3854 11.0097 17.3691 11.3125 17.6517L11.6579 17.9741L13.289 16.4517Z" fill="#F1F3F8"/>
</svg>
