<svg width="17" height="16" viewBox="0 0 17 16" fill="none" xmlns="http://www.w3.org/2000/svg">
<g clip-path="url(#clip0_61_1420)">
<path d="M2.52866 7.22123C6.63421 5.41509 11.9471 3.21303 12.6805 2.90825C14.6042 2.11053 15.1945 2.26341 14.9002 4.03002C14.6888 5.29977 14.0789 9.50365 13.5929 12.1202C13.3044 13.6719 12.6573 13.8558 11.6397 13.1845C11.1504 12.8615 8.68045 11.2281 8.14439 10.8446C7.65504 10.4951 6.98015 10.0747 7.82654 9.24656C8.12773 8.95158 10.1021 7.06639 11.6404 5.599C11.8419 5.40627 11.5888 5.08973 11.3562 5.24424C9.28282 6.61918 6.40815 8.52757 6.04229 8.77616C5.48957 9.1515 4.95873 9.32365 4.00585 9.04991C3.28587 8.84313 2.58256 8.59649 2.30881 8.50241C1.25466 8.14047 1.50489 7.6717 2.52866 7.22123Z" fill="#D6DCE7"/>
</g>
<defs>
<clipPath id="clip0_61_1420">
<rect width="16" height="16" fill="white" transform="translate(0.300903)"/>
</clipPath>
</defs>
</svg>
