<svg width="25" height="24" viewBox="0 0 25 24" fill="none" xmlns="http://www.w3.org/2000/svg">
<path fill-rule="evenodd" clip-rule="evenodd" d="M15.2488 1.25H17.3528C18.2513 1.24997 19.0005 1.24994 19.5953 1.32991C20.2231 1.41432 20.7899 1.59999 21.2453 2.05546C21.7008 2.51093 21.8865 3.07773 21.9709 3.70552C22.0508 4.3003 22.0508 5.04952 22.0508 5.94801V21.25H22.3008C22.715 21.25 23.0508 21.5858 23.0508 22C23.0508 22.4142 22.715 22.75 22.3008 22.75H2.30078C1.88657 22.75 1.55078 22.4142 1.55078 22C1.55078 21.5858 1.88657 21.25 2.30078 21.25H2.55078L2.55078 8.948C2.55075 8.04952 2.55073 7.3003 2.63069 6.70552C2.7151 6.07773 2.90077 5.51093 3.35624 5.05546C3.81171 4.59999 4.37851 4.41432 5.0063 4.32991C5.60108 4.24994 6.3503 4.24997 7.24878 4.25L10.5788 4.25C10.6302 3.37582 10.7914 2.62031 11.3562 2.05546C11.8117 1.59999 12.3785 1.41432 13.0063 1.32991C13.6011 1.24994 14.3503 1.24997 15.2488 1.25ZM11.3076 5.75C11.3063 5.75 11.305 5.75 11.3038 5.75C11.3028 5.75 11.3018 5.75 11.3008 5.75H7.30078C6.33677 5.75 5.68921 5.75159 5.20617 5.81653C4.74471 5.87858 4.54721 5.9858 4.4169 6.11612C4.28658 6.24643 4.17936 6.44393 4.11732 6.90539C4.05237 7.38843 4.05078 8.03599 4.05078 9V21.25H8.55078V19C8.55078 18.5858 8.88657 18.25 9.30078 18.25C9.71499 18.25 10.0508 18.5858 10.0508 19V21.25H14.5508V9C14.5508 8.03599 14.5492 7.38843 14.4842 6.90539C14.4222 6.44393 14.315 6.24643 14.1847 6.11612C14.0543 5.9858 13.8569 5.87858 13.3954 5.81653C12.9135 5.75175 12.2679 5.75001 11.3076 5.75ZM16.0508 21.25L16.0508 8.94801C16.0508 8.04952 16.0508 7.3003 15.9709 6.70552C15.8865 6.07773 15.7008 5.51093 15.2453 5.05546C14.7899 4.59999 14.2231 4.41432 13.5953 4.32991C13.1699 4.27272 12.6656 4.25645 12.0841 4.25182C12.1343 3.55219 12.2444 3.28863 12.4169 3.11612C12.5472 2.9858 12.7447 2.87858 13.2062 2.81654C13.6892 2.75159 14.3368 2.75 15.3008 2.75H17.3008C18.2648 2.75 18.9124 2.75159 19.3954 2.81654C19.8569 2.87858 20.0543 2.9858 20.1847 3.11612C20.315 3.24643 20.4222 3.44393 20.4842 3.90539C20.5492 4.38843 20.5508 5.03599 20.5508 6V21.25H16.0508ZM5.55078 8C5.55078 7.58579 5.88657 7.25 6.30078 7.25H12.3008C12.715 7.25 13.0508 7.58579 13.0508 8C13.0508 8.41421 12.715 8.75 12.3008 8.75H6.30078C5.88657 8.75 5.55078 8.41421 5.55078 8ZM5.55078 11C5.55078 10.5858 5.88657 10.25 6.30078 10.25H12.3008C12.715 10.25 13.0508 10.5858 13.0508 11C13.0508 11.4142 12.715 11.75 12.3008 11.75H6.30078C5.88657 11.75 5.55078 11.4142 5.55078 11ZM5.55078 14C5.55078 13.5858 5.88657 13.25 6.30078 13.25H12.3008C12.715 13.25 13.0508 13.5858 13.0508 14C13.0508 14.4142 12.715 14.75 12.3008 14.75H6.30078C5.88657 14.75 5.55078 14.4142 5.55078 14Z" fill="#F1F3F8"/>
</svg>
